{"title":"Pistolet,kufar.i.tri.smardyashti.varela.WEBRip.XviD.BGAUDIO.API","uid":8550985,"size":1376984466,"categoryP":"video","categoryS":"movies","magnet":"?xt=urn:btih:2bf62718488c520a2e398f7b0673bbceb83e7da8&amp;dn=Pistolet%2Ckufar.i.tri.smardyashti.varela.WEBRip.XviD.BGAUDIO.API&amp;tr=udp%3A%2F%2Ftracker.openbittorrent.com%3A80&amp;tr=udp%3A%2F%2Fopen.demonii.com%3A1337&amp;tr=udp%3A%2F%2Ftracker.coppersurfer.tk%3A6969&amp;tr=udp%3A%2F%2Fexodus.desync.com%3A6969","seeders":3,"leechers":0,"uploader":null,"files":-1,"time":1370641666,"description":"Pistol, Suitcase and Three stinking barrels is a gangster comedy which tells the story of the 23-year-old student Anton, a.k.a &quot;The Beautiful&quot;. He has a dream but in order for it to come true he must first find money. The Beautiful decides to risk it all and unfortunately he finds himself mixed up in a hell of a mess of intertwining absurd situations with a drug lord fascinated with Lego, a group of small time crooks, a dangerous top cop, a sexy blond, corrupted government agents, a football player and his mistress, etc.\n\n\n\nPistolet,kufar.i.tri.smardyashti.varela.WEBRip.XviD.BGAUDIO.API.avi\n\n\n\nFormat                                   : AVI\nFormat/Info                              : Audio Video Interleave\nFormat profile                           : OpenDML\nFile size                                : 1.28 GiB\nDuration                                 : 1h 37mn\nOverall bit rate                         : 1 886 Kbps\nWriting application                      : Lavf52.84.0\n\nVideo\nID                                       : 0\nFormat                                   : xvid\nCodec ID                                 : xvid\nDuration                                 : 1h 37mn\nBit rate                                 : 1 742 Kbps\nWidth                                    : 852 pixels\nHeight                                   : 480 pixels\nDisplay aspect ratio                     : 16:9\nFrame rate                               : 25.000 fps\nBits/(Pixel*Frame)                       : 0.170\nStream size                              : 1.18 GiB (92%)\n\nAudio\nID                                       : 1\nFormat                                   : MPEG Audio\nFormat version                           : Version 1\nFormat profile                           : Layer 3\nMode                                     : Joint stereo\nMode extension                           : MS Stereo\nCodec ID                                 : 55\nCodec ID/Hint                            : MP3\nDuration                                 : 1h 37mn\nBit rate mode                            : Constant\nBit rate                                 : 128 Kbps\nChannel(s)                               : 2 channels\nSampling rate                            : 48.0 KHz\nCompression mode                         : Lossy\nStream size                              : 89.1 MiB (7%)\nAlignment                                : Aligned on interleaves\nInterleave, duration                     : 24 ms (0.60 video frame)\nWriting library                          : LAME3.98.4","torrent":{"xt":"urn:btih:2bf62718488c520a2e398f7b0673bbceb83e7da8","amp;dn":"Pistolet%2Ckufar.i.tri.smardyashti.varela.WEBRip.XviD.BGAUDIO.API","amp;tr":["udp%3A%2F%2Ftracker.openbittorrent.com%3A80","udp%3A%2F%2Fopen.demonii.com%3A1337","udp%3A%2F%2Ftracker.coppersurfer.tk%3A6969","udp%3A%2F%2Fexodus.desync.com%3A6969"],"infoHash":"2bf62718488c520a2e398f7b0673bbceb83e7da8","infoHashBuffer":{"type":"Buffer","data":[43,246,39,24,72,140,82,10,46,57,143,123,6,115,187,206,184,62,125,168]},"announce":[],"urlList":[]}}